<svg width="89" height="89" viewBox="0 0 89 89" fill="none" xmlns="http://www.w3.org/2000/svg">
<g clip-path="url(#clip0_1099_10765)">
<path fill-rule="evenodd" clip-rule="evenodd" d="M6.27258 45.3994L2.53712 43.2446H2.51062C2.41017 43.1862 2.32224 43.1085 2.25186 43.0161C2.18149 42.9236 2.13006 42.8181 2.10053 42.7057C2.07099 42.5933 2.06393 42.4762 2.07975 42.3611C2.09557 42.246 2.13396 42.1351 2.19271 42.0348L26.2834 1.33328C26.4013 1.13279 26.5936 0.98694 26.8185 0.927415C27.0434 0.867889 27.2827 0.899495 27.4844 1.01537L64.4681 22.3331C64.529 22.3671 64.5854 22.4087 64.6359 22.4567L86.7661 42.4057C86.9015 42.5269 86.9961 42.6869 87.0372 42.8639C87.0783 43.0409 87.0638 43.2263 86.9957 43.3948C86.9252 43.5677 86.8018 43.7138 86.6432 43.8121C86.4845 43.9105 86.2988 43.9561 86.1126 43.9423H84.7526V64.0944C84.7517 64.2485 84.7104 64.3996 84.633 64.5329C84.5555 64.6661 84.4445 64.7768 84.3111 64.8538L44.5721 87.8141H44.5103H44.4397C44.3439 87.8521 44.2423 87.873 44.1394 87.8759C44.037 87.8758 43.9354 87.8579 43.8392 87.8229H43.7597H43.6979L6.69646 66.3816C6.5617 66.3038 6.44989 66.1917 6.37235 66.0568C6.29481 65.9219 6.2543 65.7689 6.25492 65.6133L6.27258 45.3994ZM42.3026 66.2049L8.03876 46.4238L8.0211 65.1452L43.2651 85.5622L43.2122 66.2049C43.1455 66.2552 43.0709 66.294 42.9914 66.3197C42.9095 66.3326 42.826 66.3326 42.7441 66.3197C42.5894 66.3208 42.4372 66.2812 42.3026 66.2049ZM77.8469 48.8346L71.1796 52.7202L71.1619 70.3555L77.8469 66.4964V48.8346ZM83.0306 63.591V41.452L64.3003 24.532L44.9695 62.964L45.0048 85.5976L69.4134 71.4681V52.2433C69.4143 52.0892 69.4556 51.938 69.533 51.8048C69.6105 51.6716 69.7215 51.5609 69.8549 51.4839L78.2796 46.5827C78.4138 46.5052 78.5661 46.4644 78.7211 46.4644C78.8762 46.4644 79.0284 46.5052 79.1627 46.5827C79.2962 46.6598 79.4071 46.7704 79.4846 46.9036C79.562 47.0369 79.6033 47.1881 79.6042 47.3422L79.6572 65.5338L83.0306 63.591ZM62.8697 23.4458L27.3519 2.98465L4.22382 42.1231L42.4086 64.2003L43.2916 62.4342V62.3812L62.8697 23.4458ZM46.7269 48.499L30.7077 39.2531L30.637 39.2354L22.6009 34.5992L14.5825 29.963C14.5383 29.9453 14.4765 29.8747 14.4765 29.8747C14.4204 29.8345 14.3699 29.787 14.3264 29.7334C14.2966 29.6882 14.27 29.641 14.2469 29.5921C14.2398 29.5709 14.2271 29.5497 14.2144 29.5285C14.1953 29.4967 14.1763 29.4649 14.1763 29.4331C14.1676 29.3775 14.1676 29.3209 14.1763 29.2654C14.1719 29.2066 14.1719 29.1475 14.1763 29.0887C14.19 29.0374 14.2077 28.9872 14.2293 28.9386C14.2445 28.878 14.2652 28.8189 14.2911 28.762L18.7065 21.3705L23.069 13.9968L27.4844 6.58764C27.5204 6.54442 27.5588 6.50315 27.5992 6.46401C27.6333 6.41368 27.675 6.36899 27.7228 6.33155C27.7522 6.30876 27.785 6.29087 27.82 6.27856C27.884 6.23906 27.9521 6.2065 28.0231 6.18142H28.1291C28.205 6.16823 28.2827 6.16823 28.3587 6.18142C28.4053 6.17258 28.4533 6.17258 28.5 6.18142C28.5645 6.19261 28.627 6.21345 28.6854 6.24324L36.2623 10.5792L43.8922 14.9946L59.1961 23.8255C59.2403 23.852 59.3109 23.9227 59.3109 23.9227C59.3592 23.9592 59.4036 24.0007 59.4434 24.0463C59.4732 24.0914 59.4997 24.1387 59.5228 24.1876C59.5535 24.2339 59.5773 24.2845 59.5935 24.3377C59.5978 24.3936 59.5978 24.4497 59.5935 24.5055C59.6023 24.5611 59.6023 24.6177 59.5935 24.6733C59.6026 24.7289 59.6026 24.7855 59.5935 24.8411V24.9912L47.8926 48.1634L47.8219 48.2517L47.7601 48.3312L47.6541 48.4195L47.5747 48.4813L47.4334 48.5432H47.3539C47.2776 48.5523 47.2006 48.5523 47.1243 48.5432H46.9123H46.8417L46.7269 48.499ZM27.6875 27.5787L24.3141 33.5218L30.7872 37.2573L34.0634 31.2611L27.6875 27.5787ZM19.8015 23.0131L16.3222 28.8945L22.804 32.6387L26.1774 26.6956L19.8015 23.0131ZM30.4516 19.2158L24.1817 15.6481L20.6846 21.4588L27.0782 25.159L30.4516 19.2158ZM34.6639 11.7449L28.5353 8.21252L25.1001 14.1027L31.2817 17.6881L34.6639 11.7449ZM39.0352 22.1653L42.3203 16.1603L36.1917 12.628L32.8536 18.5711L39.0352 22.1653ZM46.7975 26.6337L49.9767 20.5758L43.848 17.0434L40.6159 23.0484L46.7975 26.6337ZM54.5511 31.1198L57.6242 24.9912L51.5044 21.4588L48.3694 27.5257L54.5511 31.1198ZM44.3249 35.1379L50.6743 38.8027L53.7563 32.6829L47.504 29.0711L44.3249 35.1379ZM40.3245 42.7678L46.8064 46.5032L49.8795 40.3834L43.5036 36.701L40.3245 42.7678ZM45.9939 28.188L39.7417 24.585L36.4654 30.59L42.8148 34.2548L45.9939 28.188ZM28.5794 26.0421L34.9288 29.7069L38.2139 23.7019L31.9617 20.0989L28.5794 26.0421ZM41.9935 35.8179L35.6176 32.1442L32.3414 38.1404L38.8144 41.8847L41.9935 35.8179ZM50.1975 78.8596C50.3321 78.9359 50.4843 78.9754 50.639 78.9744C50.7937 78.9754 50.946 78.9359 51.0806 78.8596L59.5935 73.9408C59.7283 73.863 59.8401 73.7509 59.9176 73.616C59.9952 73.4811 60.0357 73.3281 60.0351 73.1725V60.0586C60.0357 59.903 59.9952 59.75 59.9176 59.6151C59.8401 59.4802 59.7283 59.3681 59.5935 59.2903C59.4593 59.2128 59.307 59.172 59.152 59.172C58.997 59.172 58.8447 59.2128 58.7104 59.2903L54.763 61.5687C54.5443 61.6013 54.3458 61.7147 54.2067 61.8866L50.1886 64.2091C50.0539 64.2869 49.9421 64.399 49.8645 64.5339C49.787 64.6688 49.7465 64.8218 49.7471 64.9774V78.0913C49.7474 78.2478 49.7892 78.4014 49.8683 78.5364C49.9475 78.6713 50.0611 78.7829 50.1975 78.8596ZM58.2777 72.678L55.6991 74.1615L55.7786 63.0346L58.2777 61.5952V72.678ZM51.5221 65.4896L54.0036 64.059L53.9241 75.1859L51.5221 76.5635V65.4896ZM16.5516 52.8702L20.5697 55.1927C20.7032 55.2698 20.8141 55.3804 20.8916 55.5137C20.9691 55.6469 21.0103 55.7981 21.0112 55.9522V69.0749C21.0119 69.2305 20.9713 69.3835 20.8938 69.5184C20.8163 69.6533 20.7045 69.7654 20.5697 69.8432C20.4351 69.9195 20.2828 69.959 20.1281 69.958C19.9735 69.959 19.8212 69.9195 19.6866 69.8432L11.1648 64.9244C11.03 64.8466 10.9182 64.7345 10.8407 64.5996C10.7632 64.4647 10.7226 64.3117 10.7233 64.1561V51.0334C10.7242 50.8793 10.7654 50.7281 10.8429 50.5949C10.9204 50.4616 11.0313 50.351 11.1648 50.2739C11.2991 50.1964 11.4513 50.1556 11.6063 50.1556C11.7614 50.1556 11.9136 50.1964 12.0479 50.2739L15.9953 52.5523C16.1045 52.5658 16.2099 52.6008 16.3054 52.6554C16.4009 52.71 16.4846 52.783 16.5516 52.8702ZM14.9886 53.9917L12.4894 52.5435V63.6262L15.0681 65.1187L14.9886 53.9917ZM16.8431 66.1695L19.2451 67.556V56.4467L16.7636 55.0161L16.8431 66.1695ZM38.2049 65.0304L34.1869 62.7078C34.0478 62.5359 33.8493 62.4225 33.6305 62.3899L29.6831 60.1116C29.5493 60.0343 29.3975 59.9935 29.2429 59.9932C29.0884 59.993 28.9364 60.0333 28.8023 60.1102C28.6683 60.1871 28.5567 60.2978 28.4788 60.4313C28.4009 60.5648 28.3594 60.7164 28.3585 60.871V73.9937C28.3579 74.1493 28.3984 74.3023 28.4759 74.4372C28.5535 74.5722 28.6653 74.6842 28.8001 74.762L37.3218 79.6808C37.4564 79.7571 37.6087 79.7967 37.7634 79.7956C37.9181 79.7967 38.0704 79.7571 38.2049 79.6808C38.3397 79.603 38.4515 79.491 38.529 79.356C38.6066 79.2211 38.6471 79.0681 38.6465 78.9125V65.7986C38.6471 65.643 38.6066 65.49 38.529 65.3551C38.4515 65.2202 38.3397 65.1082 38.2049 65.0304ZM30.1247 62.3811L32.6238 63.847L32.7033 74.9739L30.1247 73.4815V62.3811ZM36.8803 77.3936L34.4783 76.0071L34.3988 64.8802L36.8803 66.3108V77.3936ZM61.1919 48.5785C61.0372 48.5795 60.8849 48.54 60.7504 48.4637C60.6205 48.3826 60.514 48.2691 60.4412 48.1344C60.3685 47.9997 60.332 47.8484 60.3353 47.6954V37.8578C60.3362 37.7037 60.3775 37.5525 60.4549 37.4193C60.5324 37.286 60.6434 37.1754 60.7768 37.0983L66.4816 33.7956C66.6158 33.7181 66.7681 33.6773 66.9231 33.6773C67.0782 33.6773 67.2304 33.7181 67.3647 33.7956C67.4995 33.8734 67.6113 33.9854 67.6888 34.1203C67.7663 34.2552 67.8068 34.4083 67.8062 34.5639V44.3838C67.8068 44.5394 67.7663 44.6924 67.6888 44.8273C67.6113 44.9623 67.4995 45.0743 67.3647 45.1521L61.6334 48.4637C61.4989 48.54 61.3466 48.5795 61.1919 48.5785ZM66.0224 36.0916L62.075 38.37V46.1853L66.0224 43.8804V36.0916Z" fill="white"/>
</g>
<defs>
<clipPath id="clip0_1099_10765">
<rect width="88.3088" height="88.3088" fill="white" transform="translate(0.426514 0.264709)"/>
</clipPath>
</defs>
</svg>
